<svg xmlns="http://www.w3.org/2000/svg" viewBox="0 0 900 600" width="100%" height="100%">
  <!-- Yellow stripe -->
  <rect width="900" height="200" fill="#FFD700"/>
  <!-- Blue stripe -->
  <rect y="200" width="900" height="200" fill="#003087"/>
  <!-- Red stripe -->
  <rect y="400" width="900" height="200" fill="#CF142B"/>
  <!-- 8 Stars in Arc (Angostura Star included) -->
  <g transform="translate(450, 340)" fill="#FFFFFF">
    <g transform="rotate(-35)"><path d="M 0 -115 L 3.4 -104.5 L 14.3 -104.5 L 5.4 -98 L 8.8 -87.5 L 0 -94 L -8.8 -87.5 L -5.4 -98 L -14.3 -104.5 L -3.4 -104.5 Z"/></g>
    <g transform="rotate(-25)"><path d="M 0 -115 L 3.4 -104.5 L 14.3 -104.5 L 5.4 -98 L 8.8 -87.5 L 0 -94 L -8.8 -87.5 L -5.4 -98 L -14.3 -104.5 L -3.4 -104.5 Z"/></g>
    <g transform="rotate(-15)"><path d="M 0 -115 L 3.4 -104.5 L 14.3 -104.5 L 5.4 -98 L 8.8 -87.5 L 0 -94 L -8.8 -87.5 L -5.4 -98 L -14.3 -104.5 L -3.4 -104.5 Z"/></g>
    <g transform="rotate(-5)"><path d="M 0 -115 L 3.4 -104.5 L 14.3 -104.5 L 5.4 -98 L 8.8 -87.5 L 0 -94 L -8.8 -87.5 L -5.4 -98 L -14.3 -104.5 L -3.4 -104.5 Z"/></g>
    <g transform="rotate(5)"><path d="M 0 -115 L 3.4 -104.5 L 14.3 -104.5 L 5.4 -98 L 8.8 -87.5 L 0 -94 L -8.8 -87.5 L -5.4 -98 L -14.3 -104.5 L -3.4 -104.5 Z"/></g>
    <g transform="rotate(15)"><path d="M 0 -115 L 3.4 -104.5 L 14.3 -104.5 L 5.4 -98 L 8.8 -87.5 L 0 -94 L -8.8 -87.5 L -5.4 -98 L -14.3 -104.5 L -3.4 -104.5 Z"/></g>
    <g transform="rotate(25)"><path d="M 0 -115 L 3.4 -104.5 L 14.3 -104.5 L 5.4 -98 L 8.8 -87.5 L 0 -94 L -8.8 -87.5 L -5.4 -98 L -14.3 -104.5 L -3.4 -104.5 Z"/></g>
    <g transform="rotate(35)"><path d="M 0 -115 L 3.4 -104.5 L 14.3 -104.5 L 5.4 -98 L 8.8 -87.5 L 0 -94 L -8.8 -87.5 L -5.4 -98 L -14.3 -104.5 L -3.4 -104.5 Z"/></g>
  </g>
</svg>
